<svg xmlns="http://www.w3.org/2000/svg" width="21.97" height="22" viewBox="0 0 21.97 22">
  <defs>
    <style>
      .cls-1 {
        fill-rule: evenodd;
      }
    </style>
  </defs>
  <path id="search" class="cls-1" d="M1185.55,63.5a9.24,9.24,0,0,0-6.37,2.625,9.563,9.563,0,0,0-1.93,2.883,9.062,9.062,0,0,0,0,6.985,9.568,9.568,0,0,0,1.93,2.883,9.111,9.111,0,0,0,2.86,1.921,9,9,0,0,0,3.51.7,8.743,8.743,0,0,0,3-.516,9.052,9.052,0,0,0,2.6-1.453l5.67,5.672a1.013,1.013,0,0,0,.73.3,0.9,0.9,0,0,0,.7-0.3,1,1,0,0,0,0-1.406l-5.67-5.672a9.007,9.007,0,0,0,1.46-2.625,8.86,8.86,0,0,0,.51-3,8.546,8.546,0,0,0-.73-3.492,8.74,8.74,0,0,0-4.78-4.781,8.629,8.629,0,0,0-3.49-.726h0Zm0,1.992a6.848,6.848,0,0,1,2.72.563,7.241,7.241,0,0,1,2.23,1.5,7.347,7.347,0,0,1,1.5,2.227,7.115,7.115,0,0,1,0,5.438,7.335,7.335,0,0,1-1.5,2.227,7.228,7.228,0,0,1-2.23,1.5,6.854,6.854,0,0,1-2.72.562,6.749,6.749,0,0,1-2.72-.562,7.2,7.2,0,0,1-2.25-1.5,6.755,6.755,0,0,1-1.47-2.227,6.769,6.769,0,0,1,0-5.438,6.765,6.765,0,0,1,1.47-2.227,7.217,7.217,0,0,1,2.25-1.5,6.742,6.742,0,0,1,2.72-.563h0Z" transform="translate(-1176.56 -63.5)"/>
</svg>
